HIERARCHY
ROOT Hips
{
	OFFSET 0.00000 0.00000 0.00000
	CHANNELS 6 Xposition Yposition Zposition Zrotation Yrotation Xrotation 
	JOINT LHipJoint
	{
		OFFSET 0 0 0
		CHANNELS 3 Zrotation Yrotation Xrotation
		JOINT LeftHip
		{
			OFFSET 1.41496 -1.84582 0.78394
			CHANNELS 3 Zrotation Yrotation Xrotation
			JOINT LeftKnee
			{
				OFFSET 2.58040 -7.08960 0.00000
				CHANNELS 3 Zrotation Yrotation Xrotation
				JOINT LeftAnkle
				{
					OFFSET 2.64719 -7.27309 0.00000
					CHANNELS 3 Zrotation Yrotation Xrotation
					JOINT LeftToe
					{
						OFFSET 0.20718 -0.56921 2.20259
						CHANNELS 3 Zrotation Yrotation Xrotation
						End Site
						{
							OFFSET 0.00000 -0.00000 1.14243
						}
					}
				}
			}
		}
	}
	JOINT RHipJoint
	{
		OFFSET 0 0 0
		CHANNELS 3 Zrotation Yrotation Xrotation
		JOINT RightHip
		{
			OFFSET -1.40551 -1.84582 0.78394
			CHANNELS 3 Zrotation Yrotation Xrotation
			JOINT RightKnee
			{
				OFFSET -2.56572 -7.04926 0.00000
				CHANNELS 3 Zrotation Yrotation Xrotation
				JOINT RightAnkle
				{
					OFFSET -2.57974 -7.08778 0.00000
					CHANNELS 3 Zrotation Yrotation Xrotation
					JOINT RightToe
					{
						OFFSET -0.26704 -0.73369 2.20815
						CHANNELS 3 Zrotation Yrotation Xrotation
						End Site
						{
							OFFSET -0.00000 -0.00000 1.16246
						}
					}
				}
			}
		}
	}
	JOINT lowerback
	{
		OFFSET 0 0 0
		CHANNELS 3 Zrotation Yrotation Xrotation
		JOINT Chest
		{
			OFFSET -0.04690 2.05196 -0.07017
			CHANNELS 3 Zrotation Yrotation Xrotation
			JOINT Chest2
			{
				OFFSET 0.04085 2.05260 0.00800
				CHANNELS 3 Zrotation Yrotation Xrotation
				JOINT lowerneck
				{
					OFFSET 0 0 0
					CHANNELS 3 Zrotation Yrotation Xrotation
					JOINT Neck
					{
						OFFSET -0.03582 1.80995 0.19301
						CHANNELS 3 Zrotation Yrotation Xrotation
						JOINT Head
						{
							OFFSET 0.00952 1.80195 -0.36389
							CHANNELS 3 Zrotation Yrotation Xrotation
							End Site
							{
								OFFSET 0.00392 1.85062 -0.14494
							}
						}
					}
				}
				JOINT LeftCollar
				{
					OFFSET 0 0 0
					CHANNELS 3 Zrotation Yrotation Xrotation
					JOINT LeftShoulder
					{
						OFFSET 3.55224 1.39726 -0.13667
CHANNELS 3 Zrotation Xrotation Yrotation
						JOINT LeftElbow
						{
OFFSET 0 -5.145070 -0.000000
CHANNELS 3 Zrotation Xrotation Yrotation
							JOINT LeftWrist
							{
OFFSET 0 -3.506460 0.000000
CHANNELS 3 Zrotation Xrotation Yrotation
								JOINT lhand
								{
									OFFSET 0 0 0
CHANNELS 3 Zrotation Xrotation Yrotation
									JOINT LFingers
									{
OFFSET 0 -0.629970 0.000000
CHANNELS 3 Zrotation Xrotation Yrotation
										End Site
										{
OFFSET 0 -0.507900 0.000000
										}
									}
								}
								JOINT LThumb
								{
OFFSET 0 0.000000 0.000000
CHANNELS 3 Zrotation Xrotation Yrotation
									End Site
									{
OFFSET 0 -0.515650 0.515650
									}
								}
							}
						}
					}
				}
				JOINT RightCollar
				{
					OFFSET 0 0 0
					CHANNELS 3 Zrotation Yrotation Xrotation
					JOINT RightShoulder
					{
						OFFSET -3.06467 1.61290 -0.28813
CHANNELS 3 Zrotation Xrotation Yrotation
						JOINT RightElbow
						{
OFFSET 0 -5.232000 -0.000000
CHANNELS 3 Zrotation Xrotation Yrotation
							JOINT RightWrist
							{
OFFSET 0 -3.656410 0.000000
CHANNELS 3 Zrotation Xrotation Yrotation
								JOINT rhand
								{
									OFFSET 0 0 0
CHANNELS 3 Zrotation Xrotation Yrotation
									JOINT RFingers
									{
OFFSET 0 -0.656810 0.000000
CHANNELS 3 Zrotation Xrotation Yrotation
										End Site
										{
OFFSET 0 -0.529530 0.000000
										}
									}
								}
								JOINT RThumb
								{
OFFSET 0 0.000000 0.000000
CHANNELS 3 Zrotation Xrotation Yrotation
									End Site
									{
OFFSET 0 -0.537620 0.537620
									}
								}
							}
						}
					}
				}
			}
		}
	}
}
MOTION
Frames: 6
Frame Time: 0.008333333333333333
0.204900 15.626100 -44.708700 11.218100 -3.558100 11.614700 0.000000 0.000000 0.000000 -34.785400 1.420700 6.338800 8.154900 16.232000 53.118600 0.587100 -4.943700 17.119700 0.007600 -0.563600 -1.548600 0.000000 0.000000 0.000000 16.614900 2.547700 -69.782100 -7.116000 -15.428800 49.311700 0.871700 -16.277500 -5.368000 -1.269200 -7.140500 20.132400 -7.204700 -4.574100 10.046200 1.711700 -6.990400 -3.690000 7.021800 -2.950200 -8.515500 8.544500 17.045200 -9.555600 -1.124200 45.580400 0.644000 158.332000 -45.473500 28.921000 -0.000000 -0.000000 0.000000 2.316800 2.024900 -50.114300 102.279800 -59.422500 70.614000 23.388800 -1.765400 15.287400 0.000000 0.000000 0.000000 -7.125000 0.000000 0.000000 -2.842400 13.411000 -2.108300 -0.000000 -0.000000 0.000000 -16.133500 45.203000 16.910100 -26.892900 -38.076800 -9.433000 -17.190400 4.352900 2.464100 0.000000 0.000000 0.000000 7.125000 0.000000 -0.000000 7.592400 32.495500 2.342600
0.218220 15.605683 -44.527622 10.546740 -4.156417 10.883563 0.000000 0.000000 0.000000 -33.969210 2.156204 5.185729 9.008430 16.786917 56.079888 0.469183 -4.915258 15.609222 0.035714 -1.112239 -3.058750 0.000000 0.000000 0.000000 16.760767 3.257219 -69.054293 -7.573418 -15.787135 50.995614 0.859472 -16.196269 -6.608089 -1.130266 -6.741167 18.955200 -6.652894 -4.278217 10.966768 1.871051 -6.554218 -3.537691 6.915184 -2.735930 -8.991643 8.403874 16.999507 -9.565044 -1.106840 45.569318 0.705961 158.163860 -45.475083 28.987219 0.000000 0.000000 0.000000 1.838692 2.100781 -49.711255 99.489054 -59.631311 68.206155 23.316958 -1.269714 15.103647 0.000000 0.000000 0.000000 -7.125000 0.000000 0.000000 -2.878867 13.617136 -2.122767 0.000000 0.000000 0.000000 -15.698410 44.314641 15.569291 -26.051926 -37.249856 -8.923120 -17.414769 4.478077 2.981404 0.000000 0.000000 0.000000 7.125000 0.000000 0.000000 7.463838 33.039663 2.204867
0.232440 15.583567 -44.347407 9.795414 -4.802003 10.156512 0.000000 0.000000 0.000000 -33.069262 2.929419 4.006765 9.871766 17.328530 59.047594 0.355656 -4.923103 14.139898 0.059192 -1.569849 -4.318343 0.000000 0.000000 0.000000 17.020656 4.002796 -68.272266 -8.020332 -16.132065 52.632387 0.851504 -16.169036 -7.813938 -0.998980 -6.358435 17.828886 -6.015825 -3.977917 11.865198 2.035673 -6.091307 -3.358975 6.753375 -2.516941 -9.434317 8.278701 16.961445 -9.590447 -1.092758 45.546502 0.756022 157.990669 -45.501494 29.057873 0.000000 0.000000 0.000000 1.382290 2.142019 -49.282555 96.656521 -59.822014 65.760977 23.269137 -0.785377 14.928974 0.000000 0.000000 0.000000 -7.125000 0.000000 0.000000 -2.899733 13.810591 -2.126527 0.000000 0.000000 0.000000 -15.244634 43.362495 14.205995 -25.206388 -36.410479 -8.413699 -17.573386 4.606266 3.422406 0.000000 0.000000 0.000000 7.125000 0.000000 0.000000 7.380764 33.502437 2.095295
0.251110 15.553051 -44.171460 8.648622 -5.681355 9.449668 0.000000 0.000000 0.000000 -31.755094 3.889129 2.699748 10.783600 17.804345 62.047041 0.263834 -5.110405 12.874096 0.059738 -1.577273 -4.338815 0.000000 0.000000 0.000000 17.844434 4.926693 -67.222100 -8.415297 -16.410697 54.036030 0.864606 -16.408855 -8.850457 -0.905521 -6.057802 16.954230 -4.957087 -3.655776 12.654147 2.226359 -5.496211 -3.049662 6.318612 -2.274612 -9.711475 8.229951 16.961117 -9.694770 -1.094887 45.465652 0.747233 157.792504 -45.650691 29.150459 0.000000 0.000000 0.000000 1.033236 2.011929 -48.726983 93.617332 -59.923171 63.131165 23.340105 -0.357165 14.799212 0.000000 0.000000 0.000000 -7.125000 0.000000 0.000000 -2.843450 13.941336 -2.077341 0.000000 0.000000 0.000000 -14.698452 42.094892 12.731492 -24.338282 -35.509619 -7.906549 -17.406829 4.749349 3.486059 0.000000 0.000000 0.000000 7.125000 0.000000 0.000000 7.522646 33.562705 2.124992
0.268440 15.525142 -43.996890 7.435810 -6.566252 8.763832 0.000000 0.000000 0.000000 -30.318713 4.837912 1.386266 11.693229 18.244791 64.998669 0.185987 -5.308394 11.791108 0.049100 -1.273741 -3.503913 0.000000 0.000000 0.000000 18.748811 5.856027 -66.103472 -8.803138 -16.676328 55.402119 0.858352 -16.520896 -9.893220 -0.822473 -5.784275 16.160393 -3.876607 -3.350621 13.471743 2.459631 -4.905944 -2.752231 5.912516 -2.034890 -10.006355 8.173672 16.965087 -9.763100 -1.090424 45.407060 0.754457 157.598012 -45.783692 29.243541 0.000000 0.000000 0.000000 0.668498 1.892049 -48.145664 90.526412 -59.979539 60.455995 23.478120 0.038304 14.617663 0.000000 0.000000 0.000000 -7.125000 0.000000 0.000000 -2.738264 14.119938 -1.990416 0.000000 0.000000 0.000000 -14.245980 40.801543 11.301578 -23.451721 -34.571333 -7.396424 -17.293692 5.029207 3.478038 0.000000 0.000000 0.000000 7.125000 0.000000 0.000000 7.613531 33.550491 2.153460
0.283125 15.502378 -43.825038 6.092763 -7.462090 8.119440 0.000000 0.000000 0.000000 -28.641241 5.765139 0.060033 12.598512 18.615464 67.855961 0.135709 -5.527468 11.068760 0.016400 -0.356776 -0.981591 0.000000 0.000000 0.000000 19.812189 6.796084 -64.849790 -9.176922 -16.916310 56.694124 0.813915 -16.380871 -10.948300 -0.759967 -5.564219 15.525991 -2.753234 -3.078976 14.345854 2.776914 -4.325206 -2.478239 5.562970 -1.800313 -10.336194 8.102540 16.977534 -9.760425 -1.072954 45.392375 0.793271 157.410765 -45.884740 29.337601 0.000000 0.000000 0.000000 0.272823 1.792311 -47.513555 87.333439 -59.947548 57.691344 23.748400 0.369180 14.333953 0.000000 0.000000 0.000000 -7.125000 0.000000 0.000000 -2.536605 14.392948 -1.829045 0.000000 0.000000 0.000000 -13.978375 39.457404 9.959622 -22.528751 -33.559216 -6.880430 -17.285940 5.578883 3.328622 0.000000 0.000000 0.000000 7.125000 0.000000 0.000000 7.603814 33.395289 2.179499
